<svg width="632" height="630" viewBox="0 0 632 630" fill="none" xmlns="http://www.w3.org/2000/svg">
<path fill-rule="evenodd" clip-rule="evenodd" d="M631.226 317.314C630.769 379.547 611.85 440.249 576.858 491.762C541.866 543.275 492.369 583.289 434.615 606.753C376.86 630.217 313.436 636.082 252.344 623.605C191.254 611.129 135.235 580.87 91.3573 536.65C47.4799 492.431 17.7103 436.229 5.80546 375.138C-6.0994 314.048 0.394015 250.808 24.4662 193.398C48.5384 135.987 89.1107 86.9794 141.063 52.5599C193.015 18.1406 254.018 -0.148478 316.375 0.000907876C400.272 0.461116 480.554 34.1381 539.588 93.6344C598.623 153.131 631.583 233.58 631.226 317.314Z" fill="black"/>
<path d="M316.377 560.675C449.296 560.675 557.049 452.413 557.049 318.867C557.049 185.32 449.296 77.0596 316.377 77.0596C183.456 77.0596 75.7036 185.32 75.7036 318.867C75.7036 452.413 183.456 560.675 316.377 560.675Z" fill="#F7D622"/>
<path fill-rule="evenodd" clip-rule="evenodd" d="M357.228 160.209H199.812C208.224 168.784 214.836 178.95 219.256 190.111C223.677 201.272 225.818 213.202 225.554 225.201C225.385 249.309 216.205 272.485 199.812 290.194H357.228C374.462 290.073 390.954 283.188 403.141 271.024C415.326 258.862 422.227 242.4 422.347 225.201C422.416 216.648 420.779 208.165 417.531 200.249C414.282 192.333 409.488 185.141 403.427 179.092C397.367 173.043 390.161 168.258 382.228 165.017C374.297 161.775 365.799 160.141 357.228 160.209Z" fill="black"/>
<path fill-rule="evenodd" clip-rule="evenodd" d="M384.483 344.589H199.812C208.224 353.164 214.836 363.33 219.256 374.491C223.677 385.653 225.818 397.583 225.554 409.582C225.385 433.69 216.205 456.866 199.812 474.573H384.483C401.753 474.573 418.316 467.726 430.528 455.537C442.739 443.348 449.602 426.818 449.602 409.582C449.602 392.345 442.739 375.814 430.528 363.625C418.316 351.436 401.753 344.589 384.483 344.589Z" fill="black"/>
</svg>
